<?xml version="1.0" encoding="utf-8"?>
<!-- Generator: Adobe Illustrator 21.0.2, SVG Export Plug-In . SVG Version: 6.00 Build 0)  -->
<svg version="1.1" id="圖層_1" xmlns="http://www.w3.org/2000/svg" xmlns:xlink="http://www.w3.org/1999/xlink" x="0px" y="0px"
	 viewBox="0 0 398 408" enable-background="new 0 0 398 408" xml:space="preserve">
<g>
	<path fill="#6BC3C3" d="M381.5,390l-182,0.7L17,391.2l-1.2,0l0-1.2L15.5,43l0-1.5l1.5,0l364.5,0.4l1.1,0l0,1.1l-0.5,173.8
		L381.5,390z M381.5,390l-0.7-173.8L380.4,43l1.1,1.1L17,44.5l1.5-1.5l-0.3,347l-1.2-1.2l182,0.5L381.5,390z"/>
</g>
<g>
	<path fill="#6BC3C3" d="M26.9,51.5l172.2-0.7L372,50.3l1.2,0l0,1.2l0.3,328.5l0,1.5l-1.5,0l-345.1-0.4l-1.1,0l0-1.1l0.5-164.5
		L26.9,51.5z M26.9,51.5L27.6,216l0.5,164l-1.1-1.1l345.1-0.4l-1.5,1.5l0.3-328.5l1.2,1.2l-172.2-0.5L26.9,51.5z"/>
</g>
<path fill="#6BC3C3" stroke="#6BC3C3" stroke-miterlimit="10" d="M324.1,66c0-1,0-1.9,0-3c1,0,1.9,0,2.9,0c0,1.1,0,2.1,0,3.2
	c5.7,0.9,9.8,3.5,10.3,9.9c-2.2,0-4.3,0-6.6,0c-0.5-1.8-1-3.7-3.7-4.2c0,2.4,0,4.7,0,7c0,0.4,0.6,0.9,1,1.1c1.1,0.4,2.2,0.6,3.3,1
	c5.1,1.8,7.5,5.4,7.1,10.3c-0.4,4.4-4.1,8.2-8.9,9.1c-0.8,0.2-1.6,0.3-2.5,0.5c-0.1,1.2-0.1,2.3-0.2,3.6c-0.9,0-1.8,0-2.8,0
	c-0.1-1.1-0.1-2.2-0.2-3.6c-6.8-0.7-10.7-4.3-11.2-11.5c2.2,0,4.2,0,6,0c0.8,1.5,1.4,3.1,2.3,4.3c0.5,0.7,1.6,1,2.9,1.8
	c0-3.3,0-6,0-8.8c0-0.4-0.6-0.9-1-1.1c-1.1-0.4-2.3-0.7-3.5-1.1c-3.6-1.3-5.9-3.7-6.1-7.7c-0.1-4,1.6-7.1,5.2-8.9
	C320.3,67,322.1,66.7,324.1,66z M327.1,95c2.9-0.2,4.7-1.9,4.6-4.2c0-2.2-1.8-3.6-4.6-3.7C327.1,89.6,327.1,92.2,327.1,95z
	 M324,72.1c-2.4,0.1-3.7,1.2-3.7,3.3c-0.1,2,1.1,3.1,3.7,3.5C324,76.6,324,74.5,324,72.1z"/>
<g>
	<path fill="#6BC3C3" stroke="#6BC3C3" stroke-miterlimit="10" d="M204.9,239c-6,1.4-11.5,2.6-17.1,3.9c-0.6,0.1-1.3,0.4-1.9,0.4
		c-1,0-2.1-0.2-3.1-0.3c0.4-0.8,0.6-1.8,1.3-2.4c2.5-2.6,5.2-5.1,7.8-7.6c8-7.7,16-15.4,24-23.1c2-1.9,2.4-1.9,3.9,0.5
		c8,12.5,16.1,24.9,24,37.5c0.4,0.7,0.3,1.6,0.5,2.5c-0.9-0.1-1.9,0-2.7-0.3c-5.1-2.4-10.2-4.9-15.3-7.4c-0.9-0.5-1.9-0.9-2.8-1.3
		c-3.4,28.3-16.3,51.1-43.9,64.8c-21.2,10.5-43.7,8.8-66.2,2.2c30.5,2.3,56.3-5.5,75-28.3C198.2,268,204.2,254.6,204.9,239z"/>
	<path fill="#6BC3C3" stroke="#6BC3C3" stroke-miterlimit="10" d="M163.8,267.3c3.6-3.2,5.5-7.5,9.7-10.3c-1.2-2.7-1-5.9,1.4-8.7
		c1.3-1.5,3.1-2,5.4-1.5c-0.1,1.2-0.3,2.5-0.4,3.7c-0.1-0.1-0.3-0.2-0.4-0.3c-0.9,1-2,2-2.6,3.2c-0.2,0.5,0.5,1.4,0.9,2.1
		c0.6-0.4,1.5-0.7,1.9-1.3c0.8-1.2,1.2-2.6,1.9-3.9c1.3-2.5,3.5-3.6,6.1-3.1c2.7,0.5,4.8,2.4,4.7,5.1c0,2.2-0.5,4.6-1.5,6.6
		c-1.1,2.3-3.4,2.9-6.5,2.3c0.1-1.2,0.3-2.5,0.4-3.8c2.9,0.2,3.8-1.3,3.7-3.5c0-0.7-0.8-1.5-1.2-2.2c-0.7,0.4-1.5,0.7-2,1.3
		c-0.6,0.8-0.9,1.7-1.3,2.6c-2,4.1-3.4,4.8-8.2,4c-1.8,2.1-3.6,4.2-5.4,6.3c-0.1,0.1-0.1,0.3-0.2,0.6c0.6,0.5,1.3,1,2.1,1.6
		c1.7-2,3.4-4,5.2-6.2c1,0.7,2,1.4,3.1,2.2c-1.8,2.1-3.4,4.1-5.2,6.2c1,0.7,1.8,1.3,2.7,1.9c2-2.3,3.9-4.4,5.9-6.7
		c1.1,0.8,2.1,1.5,3.3,2.4c-2.9,3.4-5.8,6.7-8.8,10.3C173.7,274.6,168.9,271.1,163.8,267.3z"/>
	<path fill="#6BC3C3" stroke="#6BC3C3" stroke-miterlimit="10" d="M119.4,292.3c-2-0.4-4.2,0.1-5-2.5c-0.2-0.6-2.5-1.1-3.6-0.9
		c-1.4,0.3-1.3,1.4,0,2.1c1.4,0.7,2.8,1.2,4.2,1.9c3.3,1.5,4.6,3.5,3.8,6.3c-0.7,2.6-3.2,4.2-6.6,3.8c-1.9-0.2-3.9-0.6-5.6-1.4
		c-2.7-1.2-3.6-3.4-3.1-6.4c1.3,0.2,2.7,0.3,4,0.5c1,3,2.2,3.9,4.7,3.6c0.7-0.1,1.5-0.5,1.9-1.1c0.2-0.2-0.5-1.3-1-1.6
		c-1.4-0.8-2.9-1.3-4.4-2c-3-1.4-4.2-3.4-3.6-5.8c0.6-2.4,2.9-3.8,6.1-3.8C116.9,285,120.2,287.9,119.4,292.3z"/>
	<path fill="#6BC3C3" stroke="#6BC3C3" stroke-miterlimit="10" d="M131.8,285.5c1.4-0.2,2.8-0.3,4.4-0.5c0.6,3.9,1.4,7.6,1.7,11.3
		c0.4,4.2-2.3,6.6-7.5,7c-4.6,0.4-7.6-1.5-8.4-5.6c-0.7-3.5-1.1-7.1-1.7-11c1.6-0.2,3.1-0.3,4.7-0.5c0.6,3.5,1.1,6.7,1.6,10
		c0.4,2.7,1.5,3.5,3.9,3.2c2.3-0.3,2.9-1.4,2.5-4c-0.5-3.1-1-6.1-1.5-9.2C131.7,286.1,131.8,285.9,131.8,285.5z"/>
	<path fill="#6BC3C3" stroke="#6BC3C3" stroke-miterlimit="10" d="M153.7,283c-1.8,0.9-3.1,2.6-5.7,1.1c-1.9-1.1-5,1.2-4.7,3.4
		c0.1,1.3,0.7,2.6,1.5,3.7c1.5,2.3,3.7,3.1,5.8,2.2c2.5-1,2.4-2.9,1.7-5.1c1.2-0.6,2.4-1.3,3.6-1.9c2.5,2.8,1.7,7.6-2.1,9.9
		c-4.4,2.7-9.6,1.8-12.9-2.4c-3.4-4.3-2.9-9.3,1.2-12.2C146.1,278.8,150.5,279.3,153.7,283z"/>
	<path fill="#6BC3C3" stroke="#6BC3C3" stroke-miterlimit="10" d="M167.9,272.5c-1.5,1.1-2.5,2.8-5.3,1.8c-2.2-0.8-4.8,1.7-4.3,3.8
		c0.6,2.5,2.2,4.4,4.8,5.4c2.6,1,5.8-1.2,4.9-3.5c-1.1-2.9,1-3.4,2.6-4.7c3.1,3.4,2.7,7.5-0.8,10.2c-4.1,3.2-9.3,2.8-13-1.1
		c-3.8-4-3.9-9.1-0.1-12.3C160.2,269.3,164.5,269.4,167.9,272.5z"/>
</g>
<path fill="#6BC3C3" stroke="#6BC3C3" stroke-miterlimit="10" d="M265.2,142.3c0.2,8,0.3,27.8,0.3,27.8l0.1,26.7l1.2,33.7
	c0,0-0.3,8.2,3.3,10.1c3.9,2,7.1,0.1,7.2-3.7c0.2-7-0.1-25.3-0.1-25.3s-0.2-22,0-23.9s0.7-3.1,2.4-2.9c1.6,0.2,2.3,2.5,2.4,3.1
	c0,0.7,0.2,30.3,0.2,30.3s-0.5,17.9,0.4,19.8c0.8,1.8,1.7,3.6,5.3,3.7c4.5-0.8,4.6-5.3,4.6-5.3l0.3-13.5l0.4-37
	c0,0-0.3-31.4-0.1-43.8c0-2.3,3.2-2.9,5.2-3.5c4.8-1.5,9.7-3.1,14.3-5.2c3.1-1.4,6.2-3.3,8.7-5.6c4.2-3.8,8-8.1,11.7-12.4
	c3.1-3.5,3.1-6,0.7-8.4c-2.6-2.5-6.3-2.4-9.3,0.5c-1.2,1.2-2.6,2.3-3.6,3.6c-10.4,13.3-24.4,17.2-40,16c-4.8-0.4-4.3,0.2-9.1,0.5
	c-2.2,0.1-13.5,6.1-15,7.7c-8.8,9.7-14,13.3-22.3,23.4c-3.4,4-2.7,7.9,1.1,9.5c3.2,1.3,5.9,0.2,8.1-2.4c5.1-5.9,10.3-11.9,15.5-17.8
	c1.8-2,3.6-4,5.4-5.9C264.7,142,265,142.2,265.2,142.3z"/>
<path fill="#6BC3C3" stroke="#6BC3C3" stroke-miterlimit="10" d="M278.6,125.4c8.4,0,15.2-6.7,15.3-15.1C294,102,287,95,278.7,95
	c-8.4,0-15.3,6.9-15.3,15.1C263.5,118.6,270.2,125.4,278.6,125.4z"/>
<g>
	<rect x="260" y="242.2" fill="#6BC3C3" stroke="#6BC3C3" stroke-miterlimit="10" width="43" height="138"/>
	<rect x="208.8" y="292.2" fill="#6BC3C3" stroke="#6BC3C3" stroke-miterlimit="10" width="41" height="88"/>
	<rect x="160.5" y="313.2" fill="#6BC3C3" stroke="#6BC3C3" stroke-miterlimit="10" width="39" height="67"/>
	<rect x="114.2" y="329.2" fill="#6BC3C3" stroke="#6BC3C3" stroke-miterlimit="10" width="37" height="51"/>
	<rect x="70" y="336.2" fill="#6BC3C3" stroke="#6BC3C3" stroke-miterlimit="10" width="33" height="44"/>
</g>
<rect x="57" y="377" fill="#6BC3C3" stroke="#6BC3C3" stroke-miterlimit="10" width="263" height="3"/>
</svg>
