<?xml version="1.0" encoding="utf-8"?>
<!-- Generator: Adobe Illustrator 21.0.2, SVG Export Plug-In . SVG Version: 6.00 Build 0)  -->
<svg version="1.1" id="Layer_1" xmlns="http://www.w3.org/2000/svg" xmlns:xlink="http://www.w3.org/1999/xlink" x="0px" y="0px"
	 viewBox="0 0 512 512" style="enable-background:new 0 0 512 512;" xml:space="preserve">
<style type="text/css">
	.st0{fill:none;stroke:#FFFFFF;stroke-width:13;stroke-miterlimit:10;}
	.st1{fill:#FFFFFF;}
	.st2{fill:#FFFFFF;stroke:#FFFFFF;stroke-width:4;stroke-miterlimit:10;}
	.st3{font-family:'AdobeMingStd-Light-B5pc-H';}
	.st4{font-size:177.325px;}
</style>
<g>
	<g>
		<polygon class="st0" points="342.2,22.7 336.7,106.5 429.4,112.6 		"/>
	</g>
</g>
<g>
	<g>
		<path class="st0" d="M335,9.3H65.6V490h380.8V120.7L335,9.3z"/>
	</g>
</g>
<rect x="111" y="203.5" class="st1" width="46" height="91"/>
<rect x="173" y="221.5" class="st1" width="43" height="73"/>
<rect x="232.8" y="237" class="st1" width="39.5" height="57.5"/>
<rect x="289.1" y="255" class="st1" width="39.5" height="39.5"/>
<rect x="339.5" y="274.7" class="st1" width="39.5" height="19.7"/>
<rect x="108" y="49.3" class="st1" width="158" height="15.7"/>
<rect x="108" y="83" class="st1" width="158" height="15.6"/>
<rect x="108" y="119" class="st1" width="195" height="13.2"/>
<rect x="108" y="149.8" class="st1" width="195" height="16"/>
<rect x="111" y="350" class="st1" width="155" height="17"/>
<rect x="111" y="387" class="st1" width="155" height="17"/>
<rect x="111" y="424" class="st1" width="155" height="17"/>
<text transform="matrix(1 0 0 1 272.2628 459.0469)" class="st2 st3 st4">＄</text>
</svg>
