<?xml version="1.0" encoding="iso-8859-1"?>
<!-- Generator: Adobe Illustrator 19.0.0, SVG Export Plug-In . SVG Version: 6.00 Build 0)  -->
<svg xmlns="http://www.w3.org/2000/svg" xmlns:xlink="http://www.w3.org/1999/xlink" version="1.1" id="Layer_1" x="0px" y="0px" viewBox="0 0 512 512" style="enable-background:new 0 0 512 512;" xml:space="preserve" width="512px" height="512px">
<g>
	<g>
		<path d="M277.328,122.645c0,4.267,4.096,9.814,21.333,13.824v-28.693C286.117,110.294,277.328,116.822,277.328,122.645z" fill="#000000"/>
	</g>
</g>
<g>
	<g>
		<path d="M319.995,162.176v28.693c12.544-2.517,21.333-9.024,21.333-14.869C341.328,171.733,337.232,166.187,319.995,162.176z" fill="#000000"/>
	</g>
</g>
<g>
	<g>
		<circle cx="415.995" cy="352" r="53.333" fill="#000000"/>
	</g>
</g>
<g>
	<g>
		<path d="M415.995,0H181.328c-0.469,0-0.896,0.214-1.365,0.277c-0.469,0.064-0.874,0.128-1.323,0.256    c-1.813,0.491-3.52,1.258-4.864,2.581l-128,128c-1.323,1.344-2.091,3.051-2.581,4.864c-0.107,0.448-0.192,0.832-0.256,1.28    c-0.064,0.491-0.277,0.917-0.277,1.408v362.667c0,5.888,4.779,10.667,10.667,10.667h285.227l22.08-110.357    c-11.861-13.227-19.307-30.528-19.307-49.643c0-41.173,33.494-74.667,74.667-74.667c3.648,0,7.146,0.576,10.667,1.088V10.667    C426.661,4.779,421.883,0,415.995,0z M202.661,213.333c5.888,0,10.667,4.779,10.667,10.667c0,5.888-4.779,10.667-10.667,10.667    H95.995c-5.888,0-10.667-4.779-10.667-10.667c0-5.888,4.779-10.667,10.667-10.667H202.661z M170.661,36.416v80.917    c0,5.888-4.779,10.667-10.667,10.667H79.077L170.661,36.416z M181.328,405.333H95.995c-5.888,0-10.667-4.779-10.667-10.667    S90.106,384,95.995,384h85.333c5.888,0,10.667,4.779,10.667,10.667S187.216,405.333,181.328,405.333z M330.661,320H95.995    c-5.888,0-10.667-4.779-10.667-10.667s4.779-10.667,10.667-10.667h234.667c5.888,0,10.667,4.779,10.667,10.667    S336.549,320,330.661,320z M319.995,212.587V224c0,5.888-4.779,10.667-10.667,10.667c-5.888,0-10.667-4.779-10.667-10.667v-11.413    c-23.253-3.178-40.854-16.661-42.603-33.813c-0.598-5.867,3.669-11.115,9.515-11.691c5.781-0.555,11.115,3.648,11.691,9.536    c0.598,5.717,9.109,11.798,21.397,14.187v-32.512c-16.854-3.264-42.667-11.243-42.667-35.627    c0-18.368,18.027-33.238,42.667-36.608V74.667c0-5.888,4.779-10.667,10.667-10.667c5.888,0,10.667,4.779,10.667,10.667v11.392    c23.253,3.178,40.854,16.661,42.603,33.813c0.598,5.867-3.669,11.093-9.515,11.691c-5.76,0.469-11.115-3.669-11.691-9.536    c-0.598-5.717-9.109-11.798-21.397-14.187v32.533c16.832,3.264,42.667,11.221,42.667,35.627    C362.661,194.346,344.634,209.216,319.995,212.587z" fill="#000000"/>
	</g>
</g>
<g>
	<g>
		<path d="M469.136,499.221l-16.512-82.56c-10.881,6.187-23.254,10.005-36.63,10.005s-25.749-3.818-36.608-10.005l-16.512,82.56    c-0.789,4.01,0.747,8.085,3.99,10.581c3.264,2.475,7.637,2.88,11.243,1.066l37.888-18.944l37.888,18.944    c1.536,0.747,3.158,1.131,4.779,1.131c2.283,0,4.587-0.747,6.485-2.197C468.368,507.328,469.926,503.232,469.136,499.221z" fill="#000000"/>
	</g>
</g>
<g>
</g>
<g>
</g>
<g>
</g>
<g>
</g>
<g>
</g>
<g>
</g>
<g>
</g>
<g>
</g>
<g>
</g>
<g>
</g>
<g>
</g>
<g>
</g>
<g>
</g>
<g>
</g>
<g>
</g>
</svg>
