<?xml version="1.0" encoding="iso-8859-1"?>
<!-- Generator: Adobe Illustrator 19.0.0, SVG Export Plug-In . SVG Version: 6.00 Build 0)  -->
<svg xmlns="http://www.w3.org/2000/svg" xmlns:xlink="http://www.w3.org/1999/xlink" version="1.1" id="Layer_1" x="0px" y="0px" viewBox="0 0 472.615 472.615" style="enable-background:new 0 0 472.615 472.615;" xml:space="preserve" width="512px" height="512px">
<g>
	<g>
		<path d="M0,0v78.747h472.615V0H0z M354.462,49.208h-19.692V29.516h19.692V49.208z M393.846,49.208h-19.692V29.516h19.692V49.208z     M433.231,49.208h-19.692V29.516h19.692V49.208z" fill="#000000"/>
	</g>
</g>
<g>
	<g>
		<path d="M0,98.439v374.177h472.615V98.439H0z M78.769,433.208H59.077v-68.923h19.692V433.208z M128,433.208h-19.692v-59.077H128    V433.208z M177.231,433.208h-19.692v-88.615h19.692V433.208z M226.462,433.208h-19.692V315.054h19.692V433.208z M275.692,433.208    H256v-78.769h19.692V433.208z M324.923,433.208h-19.692v-128h19.692V433.208z M374.154,433.208h-19.692V285.516h19.692V433.208z     M423.385,433.208h-19.692V265.823h19.692V433.208z M423.385,206.747h-19.692v-35.308L265.846,309.284l-49.231-49.231L128,348.669    l-39.385-39.385l-32.423,32.423L42.27,327.784l46.346-46.346L128,320.823l88.615-88.615l49.231,49.231l123.923-123.923h-35.307    v-19.692h68.923V206.747z" fill="#000000"/>
	</g>
</g>
<g>
</g>
<g>
</g>
<g>
</g>
<g>
</g>
<g>
</g>
<g>
</g>
<g>
</g>
<g>
</g>
<g>
</g>
<g>
</g>
<g>
</g>
<g>
</g>
<g>
</g>
<g>
</g>
<g>
</g>
</svg>
