<?xml version="1.0" encoding="iso-8859-1"?>
<!-- Generator: Adobe Illustrator 19.0.0, SVG Export Plug-In . SVG Version: 6.00 Build 0)  -->
<svg xmlns="http://www.w3.org/2000/svg" xmlns:xlink="http://www.w3.org/1999/xlink" version="1.1" id="Layer_1" x="0px" y="0px" viewBox="0 0 491.519 491.519" style="enable-background:new 0 0 491.519 491.519;" xml:space="preserve" width="512px" height="512px">
<g>
	<g>
		<path d="M75.672,0l-0.266,491.333l340.441,0.186l0.266-491.335L75.672,0z M288.497,117.078l85.715-0.24c0.008,0,0.016,0,0.023,0    c4.371,0,7.917,3.538,7.928,7.905c0.011,4.382-3.526,7.935-7.904,7.952l-85.715,0.24c-0.008,0-0.016,0-0.023,0    c-4.371,0-7.917-3.54-7.928-7.905C280.581,120.648,284.119,117.095,288.497,117.078z M280.597,95.533    c-0.012-4.382,3.527-7.935,7.904-7.95l85.715-0.24c0.008,0,0.015,0,0.023,0c4.371,0,7.917,3.536,7.928,7.905    c0.012,4.38-3.527,7.935-7.904,7.95l-85.715,0.24c-0.008,0-0.015,0-0.023,0C284.154,103.438,280.608,99.9,280.597,95.533z     M288.493,146.583l85.719-0.24c0.008,0,0.016,0,0.023,0c4.371,0,7.917,3.538,7.928,7.905c0.011,4.382-3.526,7.935-7.904,7.95    l-85.719,0.24c-0.008,0-0.015,0-0.023,0c-4.371,0-7.917-3.537-7.928-7.903C280.578,150.151,284.116,146.598,288.493,146.583z     M250.984,27.999l16.775,0.009l-0.009,16.774l-16.774-0.009L250.984,27.999z M250.972,57.496l16.774,0.012l-0.009,16.774    l-16.774-0.009L250.972,57.496z M250.96,86.998l16.773,0.009l-0.009,16.775l-16.774-0.012L250.96,86.998z M250.946,116.495    l16.774,0.011l-0.01,16.772l-16.774-0.009L250.946,116.495z M250.933,145.994l16.774,0.01l-0.01,16.775l-16.772-0.009    L250.933,145.994z M175.386,37.115c14.301,0.012,27.244,5.813,36.61,15.192c9.367,9.375,15.156,22.325,15.148,36.626    c-0.007,14.302-5.811,27.244-15.187,36.611c-9.377,9.367-22.326,15.156-36.627,15.148h-0.001    c-14.301-0.008-27.244-5.811-36.61-15.187l36.639-36.598L138.76,52.265C148.136,42.9,161.086,37.111,175.386,37.115z     M116.104,59.416l29.44,29.471l-29.472,29.441c-7.534-7.545-12.192-17.958-12.185-29.463    C103.893,77.362,108.561,66.95,116.104,59.416z M323.392,379.752c0.002-3.765,3.056-6.818,6.821-6.814    c0.089,0,0.163,0.048,0.252,0.052l13.834-34.02c0.591-1.447,2.235-2.145,3.686-1.556c1.448,0.587,2.143,2.239,1.556,3.684    l-14.043,34.528c0.904,1.159,1.53,2.55,1.529,4.133c-0.002,3.765-3.056,6.818-6.821,6.815c-1.272-0.002-2.394-0.444-3.412-1.048    l-26.798,15.032c-0.203,3.587-3.112,6.452-6.748,6.448c-3.361,0-6.024-2.478-6.585-5.679l-26.553-10.552    c-1.251,1.535-3.08,2.578-5.215,2.576c-1.589,0-2.986-0.631-4.145-1.544l-22.017,16.951c0.011,0.158,0.091,0.293,0.091,0.454    c-0.002,3.767-3.056,6.818-6.821,6.816c-3.581-0.002-6.434-2.794-6.71-6.304l-38.605-18.716c-1.249,1.389-3.013,2.299-5.028,2.296    c-0.858,0-1.663-0.198-2.419-0.489l-29.332,36.081c-0.558,0.688-1.375,1.043-2.198,1.043c-0.627,0-1.256-0.208-1.78-0.634    c-1.213-0.986-1.396-2.767-0.411-3.978l29.773-36.624c-0.245-0.703-0.447-1.431-0.446-2.218c0.002-3.765,3.056-6.814,6.821-6.814    c3.41,0.003,6.112,2.55,6.612,5.82l38.935,18.877c1.233-1.221,2.925-1.977,4.795-1.977c1.489,0,2.792,0.578,3.914,1.388    l22.19-17.083c-0.001-0.058-0.033-0.107-0.033-0.167c0.002-3.765,3.057-6.814,6.822-6.814c3.298,0.004,5.918,2.392,6.549,5.503    l26.676,10.603c1.251-1.47,3.048-2.451,5.128-2.449c1.805,0,3.421,0.731,4.64,1.879l25.713-14.423    C323.549,380.462,323.391,380.134,323.392,379.752z M257.22,297.714l-138.344,0.084h-0.004c-4.378,0-7.923-3.545-7.927-7.92    c-0.004-4.382,3.546-7.935,7.924-7.935l138.344-0.084h0.004c4.378,0,7.923,3.546,7.927,7.92    C265.148,294.158,261.598,297.714,257.22,297.714z M374.088,461.593h-0.004l-255.154-0.139c-4.378-0.008-7.924-3.553-7.92-7.936    l0.073-136.489c0.004-4.375,3.55-7.92,7.928-7.92h0.004c4.378,0,7.927,3.553,7.924,7.935l-0.07,128.562l247.222,0.131    c4.378,0,7.927,3.554,7.924,7.935C382.012,458.048,378.466,461.593,374.088,461.593z M374.096,264.183h-0.004l-255.177-0.139    c-4.378,0-7.928-3.553-7.924-7.936c0.004-4.373,3.55-7.92,7.928-7.92h0.004l255.177,0.141c4.378,0,7.928,3.554,7.923,7.935    C382.019,260.637,378.474,264.183,374.096,264.183z M374.196,230.536h-0.004l-255.177-0.139c-4.378,0-7.928-3.553-7.924-7.935    c0.004-4.375,3.55-7.92,7.928-7.92h0.004L374.2,214.68c4.378,0,7.927,3.554,7.924,7.935    C382.121,226.99,378.574,230.536,374.196,230.536z M374.243,196.891h-0.005l-255.173-0.133c-4.378,0-7.928-3.553-7.924-7.935    c0.004-4.375,3.55-7.92,7.927-7.92h0.004l255.174,0.131c4.378,0,7.927,3.554,7.923,7.937    C382.167,193.343,378.621,196.891,374.243,196.891z M374.266,73.7l-85.715,0.24c-0.008,0-0.015,0-0.024,0    c-4.37,0-7.916-3.538-7.927-7.905c-0.012-4.381,3.527-7.935,7.905-7.95l85.714-0.24c0.008,0,0.015,0,0.024,0    c4.37,0,7.916,3.537,7.927,7.905C382.182,70.132,378.644,73.686,374.266,73.7z M374.266,44.195l-85.715,0.24    c-0.008,0-0.015,0-0.024,0c-4.37,0-7.916-3.537-7.927-7.903c-0.012-4.381,3.527-7.937,7.905-7.952l85.714-0.24    c0.008,0,0.015,0,0.024,0c4.37,0,7.916,3.537,7.927,7.905C382.182,40.627,378.644,44.181,374.266,44.195z" fill="#000000"/>
	</g>
</g>
<g>
</g>
<g>
</g>
<g>
</g>
<g>
</g>
<g>
</g>
<g>
</g>
<g>
</g>
<g>
</g>
<g>
</g>
<g>
</g>
<g>
</g>
<g>
</g>
<g>
</g>
<g>
</g>
<g>
</g>
</svg>
