<?xml version="1.0" encoding="iso-8859-1"?>
<!-- Generator: Adobe Illustrator 18.0.0, SVG Export Plug-In . SVG Version: 6.00 Build 0)  -->
<!DOCTYPE svg PUBLIC "-//W3C//DTD SVG 1.1//EN" "http://www.w3.org/Graphics/SVG/1.1/DTD/svg11.dtd">
<svg xmlns="http://www.w3.org/2000/svg" xmlns:xlink="http://www.w3.org/1999/xlink" version="1.1" id="Capa_1" x="0px" y="0px" viewBox="0 0 368.898 368.898" style="enable-background:new 0 0 368.898 368.898;" xml:space="preserve" width="512px" height="512px">
<path d="M343.863,223.128v-0.007h-56.813l-0.011-67.449c-2.309-49.576-39.829-89.946-88.088-96.773V43.908  c0-8.045-4.722-14.794-11.058-16.629V16.235c1.773-1.138,2.953-3.123,2.953-5.388c0-3.533-2.865-6.398-6.398-6.398  s-6.398,2.865-6.398,6.398c0,2.265,1.179,4.25,2.953,5.388v11.044c-6.338,1.835-11.06,8.584-11.06,16.629V58.9  c-48.259,6.826-85.777,47.196-88.086,96.772l-0.011,67.449H25.035v0.007C11.184,223.277,0,234.55,0,248.438  c0,13.98,11.332,25.316,25.313,25.316c10.053,0,18.734-5.857,22.821-14.344h5.556v82.781H33.104v22.258h302.69v-22.258h-20.586  V259.41h5.556c4.088,8.486,12.771,14.344,22.821,14.344c13.982,0,25.314-11.336,25.314-25.316  C368.898,234.551,357.717,223.278,343.863,223.128z M178.384,43.908c0-4.715,2.777-8.698,6.065-8.698  c3.287,0,6.063,3.983,6.063,8.698v6.491h-12.129V43.908z M167.131,122.697l2.289-4.543c0.201-0.412,0.574-0.703,1.014-0.816  c0.441-0.113,0.912-0.021,1.277,0.24c4.297,3.029,9.715,4.988,13.805,4.988c1.422,0,6.068-0.305,6.068-4.236  c0-3.285-3.48-4.484-8.785-5.936c-6.137-1.684-13.768-3.77-13.768-12.229c0-6.086,4.33-10.545,11.586-11.922l0.422-0.082v-7.367  c0-0.861,0.697-1.563,1.564-1.563h3.873c0.865,0,1.564,0.701,1.564,1.563v7.1l0.469,0.047c4.219,0.451,8.434,1.717,11.857,3.559  c0.74,0.398,1.035,1.303,0.67,2.055l-2.307,4.783c-0.182,0.381-0.506,0.664-0.904,0.805c-0.396,0.133-0.832,0.105-1.203-0.084  c-4.223-2.125-8.943-3.5-12.021-3.5c-3.846,0-5.215,1.875-5.215,3.631c0,3.172,3.404,4.383,8.604,5.869  c6.215,1.783,13.949,3.998,13.949,12.719c0,6.668-5.15,11.396-13.436,12.346l-0.463,0.055v7.58c0,0.867-0.699,1.568-1.564,1.568  h-3.873c-0.867,0-1.564-0.701-1.564-1.568v-7.809l-0.439-0.066c-4.713-0.73-9.326-2.584-12.988-5.217  C166.988,124.221,166.781,123.381,167.131,122.697z M201.48,160.525v62.596h-34.063v-62.596H201.48z M124.604,302.141h-45.01  v-23.938h45.01V302.141z M141.387,223.121h-33.502v-62.596h33.502V223.121z M213.893,342.191h-58.887v-81.721h58.887V342.191z   M227.512,160.525h33.502v62.596h-33.502V160.525z M289.303,302.141h-45.01v-23.938h45.01V302.141z" fill="#000000"/>
<g>
</g>
<g>
</g>
<g>
</g>
<g>
</g>
<g>
</g>
<g>
</g>
<g>
</g>
<g>
</g>
<g>
</g>
<g>
</g>
<g>
</g>
<g>
</g>
<g>
</g>
<g>
</g>
<g>
</g>
</svg>
