<?xml version="1.0" encoding="utf-8"?>
<!-- Generator: Adobe Illustrator 21.0.2, SVG Export Plug-In . SVG Version: 6.00 Build 0)  -->
<svg version="1.1" id="Layer_1" xmlns="http://www.w3.org/2000/svg" xmlns:xlink="http://www.w3.org/1999/xlink" x="0px" y="0px"
	 viewBox="0 0 512 512" style="enable-background:new 0 0 512 512;" xml:space="preserve">
<style type="text/css">
	.st0{fill:#FFFFFF;}
</style>
<g>
	<g>
		<g>
			<path class="st0" d="M307.2,179.1c0,4.7,3.8,8.5,8.5,8.5h85.4c4.7,0,8.5-3.8,8.5-8.5c0-4.7-3.8-8.5-8.5-8.5h-85.4
				C311,170.5,307.2,174.4,307.2,179.1z"/>
			<path class="st0" d="M358.4,230.3c0,4.7,3.8,8.5,8.5,8.5h51.2c4.7,0,8.5-3.8,8.5-8.5c0-4.7-3.8-8.5-8.5-8.5H367
				C362.3,221.8,358.4,225.6,358.4,230.3z"/>
			<path class="st0" d="M349.9,136.4c4.7,0,8.5-3.8,8.5-8.5c0-4.7-3.8-8.5-8.5-8.5h-17.1c-4.7,0-8.5,3.8-8.5,8.5
				c0,4.7,3.8,8.5,8.5,8.5H349.9z"/>
			<path class="st0" d="M247.5,221.8c-4.7,0-8.5,3.8-8.5,8.5c0,4.7,3.8,8.5,8.5,8.5h85.4c4.7,0,8.5-3.8,8.5-8.5
				c0-4.7-3.8-8.5-8.5-8.5H247.5z"/>
			<path class="st0" d="M290.1,460.8H127.9c-14.1,0-25.6-11.5-25.6-25.6V42.5c0-4.7-3.8-8.5-8.5-8.5c-23.5,0-42.7,19.1-42.7,42.7
				c0,4.7,3.8,8.5,8.5,8.5s8.5-3.8,8.5-8.5c0-11.1,7.1-20.6,17.1-24.2v382.7c0,23.5,19.1,42.7,42.7,42.7h162.2
				c4.7,0,8.5-3.8,8.5-8.5C298.7,464.6,294.9,460.8,290.1,460.8z"/>
			<path class="st0" d="M162.1,187.6h119.5c4.7,0,8.5-3.8,8.5-8.5c0-4.7-3.8-8.5-8.5-8.5H162.1c-4.7,0-8.5,3.8-8.5,8.5
				C153.6,183.8,157.4,187.6,162.1,187.6z"/>
			<path class="st0" d="M162.1,136.4h34.1c4.7,0,8.5-3.8,8.5-8.5c0-4.7-3.8-8.5-8.5-8.5h-34.1c-4.7,0-8.5,3.8-8.5,8.5
				C153.6,132.6,157.4,136.4,162.1,136.4z"/>
			<path class="st0" d="M298.7,119.3h-68.3c-4.7,0-8.5,3.8-8.5,8.5c0,4.7,3.8,8.5,8.5,8.5h68.3c4.7,0,8.5-3.8,8.5-8.5
				C307.2,123.1,303.4,119.3,298.7,119.3z"/>
			<path class="st0" d="M418.2,0H93.8C51.5,0,17.1,34.3,17,76.5v0.1v0.1v0.1v0.1c0.1,27.2,14.8,52.6,38.4,66.2
				c4.1,2.4,9.3,1,11.7-3.1c2.4-4.1,1-9.3-3.1-11.7C45.5,117.7,34.1,98,34,76.7c0.1-32.9,26.8-59.7,59.8-59.7h324.4
				c32.9,0,59.8,26.8,59.8,59.8v358.5c0,4.3-1.2,8.7-3.5,12.5c-2.4,4.1-1,9.3,3,11.7c1.4,0.8,2.9,1.2,4.3,1.2c2.9,0,5.8-1.5,7.4-4.2
				c3.8-6.5,5.8-13.8,5.8-21.2V76.8C495,34.5,460.6,0,418.2,0z"/>
			<path class="st0" d="M443.8,392.5c0-28.2-23-51.2-51.2-51.2c-28.2,0-51.2,23-51.2,51.2c0,28.2,23,51.2,51.2,51.2
				C420.8,443.7,443.8,420.7,443.8,392.5z M392.6,426.6c-18.8,0-34.1-15.3-34.1-34.1s15.3-34.1,34.1-34.1
				c18.8,0,34.1,15.3,34.1,34.1S411.4,426.6,392.6,426.6z"/>
			<path class="st0" d="M377.2,452.3c-4.1-2.4-9.3-1-11.7,3.1l-18.4,31.9l-2.9-4.4c-1.5-2.2-3.9-3.7-6.6-3.8l-5.3-0.3l18.7-32.4
				c2.4-4.1,1-9.3-3.1-11.7c-4.1-2.4-9.3-1-11.7,3.1l-25.6,44.3c-1.5,2.6-1.5,5.7-0.1,8.3c1.4,2.6,4,4.3,7,4.5l14.8,0.9l8.2,12.4
				c1.6,2.4,4.3,3.8,7.1,3.8h0.3c2.9-0.1,5.7-1.7,7.1-4.3l25.3-43.8C382.7,459.8,381.3,454.6,377.2,452.3z"/>
			<path class="st0" d="M449.2,438.2c-2.4-4.1-7.6-5.5-11.7-3.1c-4.1,2.4-5.5,7.6-3.1,11.7l18.5,32l-5.3,0.3
				c-2.7,0.2-5.1,1.6-6.6,3.8l-2.9,4.4l-18.3-31.7c-2.4-4.1-7.6-5.5-11.7-3.1c-4.1,2.4-5.5,7.6-3.1,11.7l25.2,43.6
				c1.5,2.6,4.2,4.2,7.1,4.3h0.3c2.9,0,5.5-1.4,7.1-3.8l8.2-12.4l14.8-0.9c3-0.2,5.6-1.9,7-4.5c1.4-2.6,1.3-5.8-0.1-8.3L449.2,438.2
				z"/>
			<path class="st0" d="M162.1,238.8h51.2c4.7,0,8.5-3.8,8.5-8.5c0-4.7-3.8-8.5-8.5-8.5h-51.2c-4.7,0-8.5,3.8-8.5,8.5
				C153.6,235,157.4,238.8,162.1,238.8z"/>
			<path class="st0" d="M162.1,290.1h102.4c4.7,0,8.5-3.8,8.5-8.5c0-4.7-3.8-8.5-8.5-8.5H162.1c-4.7,0-8.5,3.8-8.5,8.5
				C153.6,286.2,157.4,290.1,162.1,290.1z"/>
			<path class="st0" d="M163,396.3c2.1,4.2,7.2,5.9,11.4,3.8c4.2-2.1,5.9-7.2,3.8-11.5c-8.5-16.9-10.3-32.1-5.1-40.6
				c2.8-4.5,7.7-6.8,14.5-6.8c4.1,0,5.6,1.4,6.5,2.8c6.4,9.2,0.3,37.1-6,54c-1.4,3.8,0,8,3.4,10.2c3.4,2.2,7.8,1.7,10.7-1.1
				c3.6-3.6,7.6-7.3,11-10.2v4.2c0,3.4,2.1,6.6,5.3,7.9c3.2,1.3,6.9,0.6,9.3-1.8c3.9-3.9,8.4-7.7,12.2-10.5
				c-0.1,0.2-0.2,0.4-0.3,0.6c-1.3,2.6-1.2,5.8,0.4,8.3c1.6,2.5,4.3,4,7.3,4h34.1c4.7,0,8.5-3.8,8.5-8.5c0-4.7-3.8-8.5-8.5-8.5
				h-22.2c0.7-4.1,0.5-8.2-1.5-11.5c-2.2-3.5-6-5.5-10.4-5.5c-5.3,0-11.5,3.2-17.1,7.2c-0.4-3.7-2.6-6.8-6-8.2
				c-2.3-0.9-5.2-2.2-12.3,2.1c2.8-14.7,3.6-31.7-3.7-42.2c-3.2-4.6-9.4-10.1-20.6-10.1c-12.8,0-23.1,5.3-29.1,14.9
				C150.1,352.9,151.7,373.7,163,396.3z"/>
			<path class="st0" d="M392.6,281.5c0-4.7-3.8-8.5-8.5-8.5h-85.4c-4.7,0-8.5,3.8-8.5,8.5c0,4.7,3.8,8.5,8.5,8.5h85.4
				C388.8,290.1,392.6,286.2,392.6,281.5z"/>
		</g>
	</g>
</g>
</svg>
