<?xml version="1.0" encoding="iso-8859-1"?>
<!-- Generator: Adobe Illustrator 19.0.0, SVG Export Plug-In . SVG Version: 6.00 Build 0)  -->
<svg xmlns="http://www.w3.org/2000/svg" xmlns:xlink="http://www.w3.org/1999/xlink" version="1.1" id="Layer_1" x="0px" y="0px" viewBox="0 0 512 512" style="enable-background:new 0 0 512 512;" xml:space="preserve" width="512px" height="512px">
<g>
	<g>
		<path d="M6.837,174.049v31.363h16.006v274.384H6.837v31.363h129.686v-337.11H6.837z M74.435,337.105H43.072v-43.03h31.363V337.105    z M74.435,283.526H43.072v-43.03h31.363V283.526z M116.085,337.105H84.722v-43.03h31.363V337.105z M116.085,283.526H84.722v-43.03    h31.363V283.526z" fill="#000000"/>
	</g>
</g>
<g>
	<g>
		<polygon points="238.944,395.1 238.944,496.319 238.944,512 273.046,512 273.046,496.319 273.046,395.1   " fill="#000000"/>
	</g>
</g>
<g>
	<g>
		<path d="M255.995,119.279l-88.109,31.143v361.573h39.695V363.732h96.828v148.263h39.706V150.422L255.995,119.279z     M284.378,241.448h-56.756v-31.206h56.756V241.448z" fill="#000000"/>
	</g>
</g>
<g>
	<g>
		<polygon points="271.676,15.681 271.676,0 240.313,0 240.313,91.569 245.551,89.719 255.995,86.029 266.449,89.719     271.676,91.569 271.676,63.771 327.77,63.771 327.77,15.681   " fill="#000000"/>
	</g>
</g>
<g>
	<g>
		<path d="M505.163,205.412v-31.363H375.477v57.206h-0.01V412.47h0.01v98.689h129.686v-31.363h-16.016V205.412H505.163z     M426.923,337.105H395.56v-43.03h31.363V337.105z M426.923,283.526H395.56v-43.03h31.363V283.526z M468.562,337.105h-31.363    v-43.03h31.363V337.105z M468.562,283.526h-31.363v-43.03h31.363V283.526z" fill="#000000"/>
	</g>
</g>
<g>
</g>
<g>
</g>
<g>
</g>
<g>
</g>
<g>
</g>
<g>
</g>
<g>
</g>
<g>
</g>
<g>
</g>
<g>
</g>
<g>
</g>
<g>
</g>
<g>
</g>
<g>
</g>
<g>
</g>
</svg>
