<?xml version="1.0" encoding="iso-8859-1"?>
<!-- Generator: Adobe Illustrator 19.0.0, SVG Export Plug-In . SVG Version: 6.00 Build 0)  -->
<svg xmlns="http://www.w3.org/2000/svg" xmlns:xlink="http://www.w3.org/1999/xlink" version="1.1" id="Layer_1" x="0px" y="0px" viewBox="0 0 512 512" style="enable-background:new 0 0 512 512;" xml:space="preserve" width="512px" height="512px">
<g>
	<g>
		<path d="M437.019,74.982C388.667,26.629,324.38,0.001,256,0.001c-68.38,0-132.668,26.628-181.019,74.981    C26.629,123.333,0,187.62,0,256s26.629,132.668,74.981,181.019C123.333,485.371,187.62,511.999,256,511.999    c68.379,0,132.668-26.628,181.018-74.981C485.372,388.667,512,324.379,512,256S485.371,123.333,437.019,74.982z M496.516,246.824    h-69.581c-3.304-62.238-40.005-115.759-92.466-142.931l31.24-62.112C440.861,80.425,493.149,157.472,496.516,246.824z M256,15.292    c34.063,0,66.487,7.128,95.883,19.944l-31.304,62.241C300.641,89.325,278.838,84.818,256,84.818    c-64.854,0-121.4,36.253-150.438,89.56l-66.827-21.939C77.518,71.401,160.327,15.292,256,15.292z M103.277,287.426    c-0.846-4.137-4.884-6.797-9.023-5.957c-4.137,0.846-6.805,4.886-5.958,9.024c7.789,38.066,28.676,72.727,58.813,97.598    c28.58,23.586,64.274,37.256,101.245,38.918v69.567C119.152,492.522,15.291,386.168,15.291,256    c0-31.612,6.138-61.815,17.264-89.495l66.253,21.749C89.815,209.042,84.818,231.947,84.818,256c0,4.223,3.423,7.646,7.646,7.646    s7.646-3.422,7.646-7.646c0-85.958,69.933-155.891,155.891-155.891S411.891,170.042,411.891,256    c0,85.958-69.933,155.891-155.891,155.891C182.264,411.891,118.035,359.546,103.277,287.426z M263.646,496.575v-69.572    c88.829-3.925,160.272-75.861,163.415-164.887h69.57C493.438,389.484,390.818,492.585,263.646,496.575z" fill="#000000"/>
	</g>
</g>
<g>
	<g>
		<path d="M190.344,221.547h-30.581c-4.222,0-7.646,3.422-7.646,7.646v78.7c0,4.222,3.423,7.646,7.646,7.646h30.581    c4.222,0,7.646-3.422,7.646-7.646v-78.7C197.99,224.969,194.566,221.547,190.344,221.547z M182.698,300.246h-15.29v-63.409h15.29    V300.246z" fill="#000000"/>
	</g>
</g>
<g>
	<g>
		<path d="M358.537,242.143h-30.58c-4.223,0-7.646,3.422-7.646,7.646v58.104c0,4.222,3.423,7.646,7.646,7.646h30.58    c4.223,0,7.646-3.422,7.646-7.646v-58.104C366.183,245.565,362.761,242.143,358.537,242.143z M350.892,300.247h-15.289v-42.812    h15.289V300.247z" fill="#000000"/>
	</g>
</g>
<g>
	<g>
		<path d="M304.436,221.547h-30.581c-4.223,0-7.646,3.422-7.646,7.646v78.7c0,4.222,3.423,7.646,7.646,7.646h30.581    c4.223,0,7.646-3.422,7.646-7.646v-78.7C312.082,224.969,308.659,221.547,304.436,221.547z M296.79,300.246H281.5v-63.409h15.29    V300.246z" fill="#000000"/>
	</g>
</g>
<g>
	<g>
		<path d="M246.919,184.038h-30.581c-4.222,0-7.646,3.422-7.646,7.646v116.207c0,4.223,3.423,7.647,7.646,7.647h30.581    c4.222,0,7.646-3.422,7.646-7.646V191.684C254.564,187.461,251.141,184.038,246.919,184.038z M239.273,300.246h-15.29V199.33    h15.29V300.246z" fill="#000000"/>
	</g>
</g>
<g>
</g>
<g>
</g>
<g>
</g>
<g>
</g>
<g>
</g>
<g>
</g>
<g>
</g>
<g>
</g>
<g>
</g>
<g>
</g>
<g>
</g>
<g>
</g>
<g>
</g>
<g>
</g>
<g>
</g>
</svg>
