<?xml version="1.0" encoding="iso-8859-1"?>
<!-- Generator: Adobe Illustrator 19.0.0, SVG Export Plug-In . SVG Version: 6.00 Build 0)  -->
<svg xmlns="http://www.w3.org/2000/svg" xmlns:xlink="http://www.w3.org/1999/xlink" version="1.1" id="Layer_1" x="0px" y="0px" viewBox="0 0 511.999 511.999" style="enable-background:new 0 0 511.999 511.999;" xml:space="preserve" width="512px" height="512px">
<g>
	<g>
		<path d="M510,181.286c-0.003-0.007-0.007-0.013-0.01-0.021L437.64,47.696c-2.902-5.356-8.58-8.744-14.68-8.744H89.037    c-6.094,0-11.775,3.38-14.68,8.744L2.007,181.265c-0.003,0.007-0.007,0.013-0.01,0.021c-3.38,6.287-2.369,13.915,2.278,19.097    c0.004,0.004,0.008,0.009,0.012,0.013l239.274,267.099c6.638,7.411,18.248,7.395,24.872,0    c0.001-0.001,239.288-267.111,239.289-267.113C512.478,195.079,513.312,187.421,510,181.286z M393.786,72.344l-50.148,85.359    l-56.551-85.359C287.086,72.344,393.786,72.344,393.786,72.344z M313.398,172.52H198.597l57.4-86.642L313.398,172.52z     M224.909,72.344l-56.551,85.359L118.21,72.344C118.21,72.344,224.909,72.344,224.909,72.344z M89.627,89.613l48.708,82.907    H44.719L89.627,89.613z M54.06,205.913h101.055l59.762,179.517L54.06,205.913z M255.998,403.235l-65.69-197.323h131.38    L255.998,403.235z M297.12,385.429l59.762-179.517h101.055L297.12,385.429z M373.66,172.52l48.708-82.907l44.908,82.907H373.66z" fill="#000000"/>
	</g>
</g>
<g>
</g>
<g>
</g>
<g>
</g>
<g>
</g>
<g>
</g>
<g>
</g>
<g>
</g>
<g>
</g>
<g>
</g>
<g>
</g>
<g>
</g>
<g>
</g>
<g>
</g>
<g>
</g>
<g>
</g>
</svg>
