<?xml version="1.0" encoding="utf-8"?>
<!-- Generator: Adobe Illustrator 21.0.2, SVG Export Plug-In . SVG Version: 6.00 Build 0)  -->
<svg version="1.1" id="Capa_1" xmlns="http://www.w3.org/2000/svg" xmlns:xlink="http://www.w3.org/1999/xlink" x="0px" y="0px"
	 viewBox="0 0 965.7 965.7" style="enable-background:new 0 0 965.7 965.7;" xml:space="preserve">
<style type="text/css">
	.st0{fill:#07BACC;}
</style>
<g>
	<g>
		<path class="st0" d="M766.6,628V469.9l-253.1,50.9c-10,2-20.3,3-30.6,3s-20.5-1-30.6-3l-253.1-50.9V628
			c0,40.9,127,74.1,283.7,74.1S766.6,669,766.6,628z"/>
		<path class="st0" d="M945.7,354.3l-438.1-88.2c-8.1-1.6-16.4-2.5-24.7-2.5s-16.5,0.8-24.7,2.5L20.1,354.3
			c-26.8,5.4-26.8,43.6,0,49l179.1,36l259,52.1c8.1,1.6,16.4,2.5,24.7,2.5s16.5-0.8,24.7-2.5l259-52.1l80.6-16.2v187.4
			c-9.5,8.3-15.5,20.6-15.5,34.2c0,25.1,20.4,45.5,45.5,45.5c25.1,0,45.5-20.4,45.5-45.5c0-13.7-6-25.9-15.5-34.2V411l38.5-7.7
			C972.4,397.9,972.4,359.7,945.7,354.3z"/>
	</g>
</g>
</svg>
