<?xml version="1.0" encoding="utf-8"?>
<!-- Generator: Adobe Illustrator 21.0.2, SVG Export Plug-In . SVG Version: 6.00 Build 0)  -->
<svg version="1.1" id="Capa_1" xmlns="http://www.w3.org/2000/svg" xmlns:xlink="http://www.w3.org/1999/xlink" x="0px" y="0px"
	 viewBox="0 0 16.1 16.1" style="enable-background:new 0 0 16.1 16.1;" xml:space="preserve">
<style type="text/css">
	.st0{fill:#07BACC;}
</style>
<g>
	<g>
		<path class="st0" d="M6.5,3.5C2.9,3.5,0,5.7,0,8.5c0,1.4,0.7,2.6,1.8,3.5c-0.1,0.9-0.3,2-0.9,2.6c1.3,0,2.6-0.8,3.4-1.4
			c0.7,0.2,1.4,0.3,2.2,0.3c3.6,0,6.5-2.2,6.5-5C13,5.7,10.1,3.5,6.5,3.5z"/>
		<path class="st0" d="M15.1,9C15.7,8.2,16,7.4,16,6.5c0-2.8-2.9-5-6.5-5c-1.6,0-3,0.4-4.2,1.2C5.9,2.5,6.4,2.5,7,2.5
			c3.9,0,7,2.5,7,5.5c0,1.2-0.5,2.3-1.3,3.2c0.8,0.6,2.1,1.4,3.4,1.4C15.2,11.7,15.1,9.8,15.1,9z"/>
	</g>
</g>
</svg>
