<?xml version="1.0" encoding="iso-8859-1"?>
<!-- Generator: Adobe Illustrator 16.0.0, SVG Export Plug-In . SVG Version: 6.00 Build 0)  -->
<!DOCTYPE svg PUBLIC "-//W3C//DTD SVG 1.1//EN" "http://www.w3.org/Graphics/SVG/1.1/DTD/svg11.dtd">
<svg version="1.1" id="Capa_1" xmlns="http://www.w3.org/2000/svg" xmlns:xlink="http://www.w3.org/1999/xlink" x="0px" y="0px"
	 width="30.363px" height="30.363px" viewBox="0 0 30.363 30.363" style="enable-background:new 0 0 30.363 30.363;"
	 xml:space="preserve">
<g>
	<g>
		<polygon points="11.943,3.761 11.943,14.02 13.113,13.53 13.12,4.936 29.188,4.936 29.188,15.529 20.979,15.529 17.893,16.704 
			30.363,16.704 30.363,3.761 		"/>
		<path d="M16.593,9.353c0.068,0.187,0.132,0.511,0.175,0.725c0.127,0.65,0.258,1.322,0.754,1.643
			c0.237,0.153,0.518,0.2,0.811,0.131c0.872-0.201,1.137-1.259,1.395-2.284c0.104-0.421,0.277-1.11,0.438-1.306
			c0.194,0.121,0.521,0.981,0.632,1.277c0.321,0.852,0.654,1.734,1.342,1.956c0.405,0.177,0.725,0.097,0.918,0
			c0.545-0.274,0.702-0.953,0.854-1.608c0.022-0.094,0.05-0.212,0.079-0.33c0.012,0.056,0.021,0.109,0.029,0.157
			c0.14,0.75,0.349,1.883,1.453,2.207c0.426,0.13,0.812,0.076,1.092,0.038c0.134-0.019,0.271-0.038,0.281-0.038
			c0.121,0.036,0.223,0.107,0.348,0.197c0.226,0.157,0.524,0.367,0.974,0.367c0.054,0,0.11-0.003,0.17-0.009L28.2,11.259
			c-0.067,0.008-0.101-0.001-0.304-0.144c-0.172-0.121-0.385-0.271-0.748-0.379c-0.272-0.055-0.528-0.02-0.752,0.011
			c-0.213,0.031-0.396,0.056-0.57,0.003c-0.363-0.106-0.475-0.566-0.602-1.256c-0.115-0.624-0.289-1.566-1.195-1.584
			c-0.896-0.022-1.139,0.976-1.309,1.701c-0.048,0.209-0.123,0.529-0.195,0.709c-0.19-0.171-0.442-0.839-0.584-1.213
			c-0.357-0.95-0.766-2.029-1.75-2.081c-1.07-0.06-1.381,1.167-1.651,2.246c-0.095,0.375-0.256,1.022-0.401,1.286
			c-0.068-0.195-0.129-0.507-0.17-0.715c-0.146-0.747-0.347-1.771-1.275-1.771c-1.12,0-1.736,1.505-2.28,2.834
			c-0.11,0.269-0.211,0.514-0.302,0.707l1.104,0.524c0.099-0.209,0.209-0.476,0.33-0.768C15.745,10.877,16.249,9.645,16.593,9.353z"
			/>
		<circle cx="6.237" cy="9.504" r="4.998"/>
		<polygon points="19.413,12.554 11.262,15.252 8.056,15.252 6.151,17.462 4.307,15.252 0.28,15.864 0,24.985 1.716,24.985 
			1.796,26.603 10.809,26.603 11.259,17.846 20.186,14.891 		"/>
	</g>
</g>
<g>
</g>
<g>
</g>
<g>
</g>
<g>
</g>
<g>
</g>
<g>
</g>
<g>
</g>
<g>
</g>
<g>
</g>
<g>
</g>
<g>
</g>
<g>
</g>
<g>
</g>
<g>
</g>
<g>
</g>
</svg>
