<?xml version="1.0" encoding="utf-8"?>
<!-- Generator: Adobe Illustrator 21.0.2, SVG Export Plug-In . SVG Version: 6.00 Build 0)  -->
<svg version="1.1" id="Capa_1" xmlns="http://www.w3.org/2000/svg" xmlns:xlink="http://www.w3.org/1999/xlink" x="0px" y="0px"
	 viewBox="0 0 30.4 30.4" style="enable-background:new 0 0 30.4 30.4;" xml:space="preserve">
<style type="text/css">
	.st0{fill:#95B6ED;}
</style>
<g>
	<g>
		<polygon class="st0" points="11.9,3.8 11.9,14 13.1,13.5 13.1,4.9 29.2,4.9 29.2,15.5 21,15.5 17.9,16.7 30.4,16.7 30.4,3.8 		"/>
		<path class="st0" d="M16.6,9.4c0.1,0.2,0.1,0.5,0.2,0.7c0.1,0.6,0.3,1.3,0.8,1.6c0.2,0.2,0.5,0.2,0.8,0.1c0.9-0.2,1.1-1.3,1.4-2.3
			c0.1-0.4,0.3-1.1,0.4-1.3c0.2,0.1,0.5,1,0.6,1.3c0.3,0.9,0.7,1.7,1.3,2c0.4,0.2,0.7,0.1,0.9,0c0.5-0.3,0.7-1,0.9-1.6
			c0-0.1,0-0.2,0.1-0.3c0,0.1,0,0.1,0,0.2c0.1,0.8,0.3,1.9,1.5,2.2c0.4,0.1,0.8,0.1,1.1,0c0.1,0,0.3,0,0.3,0c0.1,0,0.2,0.1,0.3,0.2
			c0.2,0.2,0.5,0.4,1,0.4c0.1,0,0.1,0,0.2,0l-0.1-1.2c-0.1,0-0.1,0-0.3-0.1c-0.2-0.1-0.4-0.3-0.7-0.4c-0.3-0.1-0.5,0-0.8,0
			c-0.2,0-0.4,0.1-0.6,0c-0.4-0.1-0.5-0.6-0.6-1.3c-0.1-0.6-0.3-1.6-1.2-1.6c-0.9,0-1.1,1-1.3,1.7c0,0.2-0.1,0.5-0.2,0.7
			c-0.2-0.2-0.4-0.8-0.6-1.2c-0.4-0.9-0.8-2-1.8-2.1c-1.1-0.1-1.4,1.2-1.7,2.2c-0.1,0.4-0.3,1-0.4,1.3c-0.1-0.2-0.1-0.5-0.2-0.7
			c-0.1-0.7-0.3-1.8-1.3-1.8c-1.1,0-1.7,1.5-2.3,2.8c-0.1,0.3-0.2,0.5-0.3,0.7l1.1,0.5c0.1-0.2,0.2-0.5,0.3-0.8
			C15.7,10.9,16.2,9.6,16.6,9.4z"/>
		<circle class="st0" cx="6.2" cy="9.5" r="5"/>
		<polygon class="st0" points="19.4,12.6 11.3,15.3 8.1,15.3 6.2,17.5 4.3,15.3 0.3,15.9 0,25 1.7,25 1.8,26.6 10.8,26.6 11.3,17.8 
			20.2,14.9 		"/>
	</g>
</g>
</svg>
